<?xml version="1.0" encoding="UTF-8"?><svg id="g" xmlns="http://www.w3.org/2000/svg" xmlns:xlink="http://www.w3.org/1999/xlink" viewBox="0 0 1013.23 432.15"><defs><mask id="a" x="-439.27" y="2408.99" width="1024" height="1024" maskUnits="userSpaceOnUse"/></defs><path d="M323.93,274.57v-98.88l-20.14.07v-18.38h59.33v18.38h-20.87v98.8h-18.31Z" style="fill:#040708;"/><path d="M391.67,194c2.44-4.88,6.1-7.32,10.99-7.32h3.66c7.32,0,12.21,1.22,14.65,3.66,2.44,2.44,3.66,7.32,3.66,14.65v69.58h-18.31v-69.58h-14.65v69.58h-18.31v-108.03l18.31-9.16v36.62Z" style="fill:#040708;"/><path d="M453.93,243.44v12.89h14.65v-12.89l18.31-9.16v21.97c0,7.32-1.22,12.21-3.66,14.65-2.44,2.44-7.32,3.66-14.65,3.66h-14.65c-7.32,0-12.21-1.22-14.65-3.66-2.44-2.44-3.66-7.3-3.66-14.58v-51.27c0-7.28,1.23-12.15,3.7-14.61,2.46-2.46,7.34-3.72,14.61-3.77l14.65.07c7.27,0,12.16,1.2,14.65,3.59,2.44,2.39,3.66,7.28,3.66,14.65v21.9l-32.96,16.55ZM468.58,214.14v-9.08h-14.65v16.41l14.65-7.32Z" style="fill:#040708;"/><path d="M530.48,230.48l-.15.07v44.02h-18.31v-117.19h36.62c7.32,0,12.21,1.22,14.65,3.66,2.44,2.44,3.66,7.32,3.66,14.65v25.63c0,7.32-2.44,12.18-7.32,14.58l-13.99,6.96,21.31,51.71h-18.31l-18.16-44.09ZM548.65,175.69h-18.31v32.89l18.31-9.08v-23.8Z" style="fill:#040708;"/><path d="M596.25,243.44v12.89h14.65v-12.89l18.31-9.16v21.97c0,7.32-1.22,12.21-3.66,14.65s-7.32,3.66-14.65,3.66h-14.65c-7.32,0-12.21-1.22-14.65-3.66-2.44-2.44-3.66-7.3-3.66-14.58v-51.27c0-7.28,1.23-12.15,3.7-14.61,2.46-2.46,7.34-3.72,14.61-3.77l14.65.07c7.28,0,12.16,1.2,14.65,3.59,2.44,2.39,3.66,7.28,3.66,14.65v21.9l-32.96,16.55ZM610.9,214.14v-9.08h-14.65v16.41l14.65-7.32Z" style="fill:#040708;"/><path d="M673.16,274.57v-7.32c-2.44,4.83-6.1,7.3-10.99,7.4l-3.66-.07c-7.32,0-12.21-1.22-14.65-3.66-2.44-2.44-3.66-7.32-3.66-14.65v-51.27c0-7.32,1.22-12.21,3.66-14.65s7.32-3.66,14.65-3.66h3.66c4.88,0,8.54,2.44,10.99,7.32v-27.47l18.31-9.16v117.19h-18.31ZM673.16,256.26v-51.27h-14.65v51.27h14.65Z" style="fill:#040708;"/><path d="M716.6,175.69c0-7.28,1.23-12.15,3.7-14.61s7.34-3.72,14.61-3.77l18.31.07c7.28,0,12.15,1.2,14.61,3.59,2.46,2.39,3.7,7.32,3.7,14.79v7.25l-18.31,9.16v-16.48h-18.31v34.79l36.62-18.31v64.01c0,7.28-1.23,12.15-3.7,14.61-2.47,2.47-7.34,3.72-14.61,3.77l-18.31-.07c-7.28,0-12.15-1.2-14.61-3.59-2.47-2.39-3.7-7.32-3.7-14.79v-7.25l18.31-9.16v16.48h18.31v-36.47l-36.62,18.24v-62.26Z" style="fill:#040708;"/><path d="M833.79,274.57h-18.31v-7.32c-2.44,4.88-6.1,7.32-10.99,7.32h-3.66c-7.32,0-12.21-1.22-14.65-3.66-2.44-2.44-3.66-7.32-3.66-14.65v-69.58h18.31v69.58h14.65v-69.58h18.31v87.89Z" style="fill:#040708;"/><path d="M844.78,186.68h18.31v7.32c2.44-4.88,6.1-7.32,10.99-7.32h3.66c7.32,0,12.21,1.22,14.65,3.66,2.44,2.44,3.66,7.32,3.66,14.65v69.58h-18.31v-69.58h-14.65v69.58h-18.31v-87.89Z" style="fill:#040708;"/><g id="h"><circle cx="190.57" cy="192.4" r="73.38" style="fill:#920d0d;"/></g><path d="M233.63,305.85v1.46l-1.27.36c-3.78-7.83-6.93-16.04-10.96-23.75-2.88-5.52-10.48-19.13-17.53-19-6.08.12-18.76,9.71-23.59,13.71-12.72,10.52-23.92,23.19-34.7,35.62h-.37c-.47-.82-.43-1.84-.38-2.75,2.22-39.35,16.75-80.68,38-113.61,1.96-3.03,4.26-6.87,6.43-9.65.81-1.04,1.26-1.63,2.3-.53,2.25,2.38,5.81,8.28,7.72,11.27,20.04,31.31,32.04,68.72,33.95,105.98l.38.88Z" style="fill:#050909;"/><path d="M191.12,254.61c-11.15,0-20.22-9.07-20.22-20.22s9.07-20.22,20.22-20.22,20.22,9.07,20.22,20.22-9.07,20.22-20.22,20.22ZM191.12,217.17c-9.5,0-17.22,7.73-17.22,17.22s7.73,17.22,17.22,17.22,17.22-7.73,17.22-17.22-7.73-17.22-17.22-17.22Z" style="fill:#ece4d1;"/><path d="M180.24,250.13c-1.73,0-2.84-.62-3.54-1.32-1.26-1.26-2.26-3.85.16-9.06,1.67-3.6,4.63-7.62,8.32-11.3,3.69-3.69,7.7-6.64,11.31-8.32,5.2-2.42,7.79-1.42,9.06-.16h0c1.26,1.26,2.25,3.85-.16,9.06-1.67,3.6-4.63,7.62-8.32,11.3-3.69,3.69-7.7,6.64-11.31,8.32-2.32,1.08-4.12,1.48-5.52,1.48ZM201.98,221.67c-.97,0-2.37.32-4.23,1.18-3.29,1.53-7,4.27-10.45,7.72-3.45,3.45-6.19,7.16-7.72,10.45-1.51,3.24-1.35,5.08-.76,5.67.59.59,2.43.75,5.67-.76,3.29-1.53,7-4.27,10.45-7.72,3.45-3.45,6.19-7.16,7.72-10.45,1.51-3.24,1.35-5.08.76-5.67h0c-.25-.25-.73-.42-1.44-.42Z" style="fill:#ece4d1;"/></svg>