<?xml version="1.0" encoding="UTF-8"?><svg id="g" xmlns="http://www.w3.org/2000/svg" xmlns:xlink="http://www.w3.org/1999/xlink" viewBox="0 0 828.58 652.91"><defs><mask id="a" x="1199.02" y="2408.99" width="1024" height="1024" maskUnits="userSpaceOnUse"/></defs><path d="M138.32,535.65v-98.88l-20.14.07v-18.38h59.33v18.38h-20.87v98.8h-18.31Z" style="fill:#040708;"/><path d="M206.07,455.09c2.44-4.88,6.1-7.32,10.99-7.32h3.66c7.32,0,12.21,1.22,14.65,3.66,2.44,2.44,3.66,7.32,3.66,14.65v69.58h-18.31v-69.58h-14.65v69.58h-18.31v-108.03l18.31-9.16v36.62Z" style="fill:#040708;"/><path d="M268.33,504.52v12.89h14.65v-12.89l18.31-9.16v21.97c0,7.32-1.22,12.21-3.66,14.65-2.44,2.44-7.32,3.66-14.65,3.66h-14.65c-7.32,0-12.21-1.22-14.65-3.66-2.44-2.44-3.66-7.3-3.66-14.58v-51.27c0-7.28,1.23-12.15,3.7-14.61,2.46-2.46,7.34-3.72,14.61-3.77l14.65.07c7.27,0,12.16,1.2,14.65,3.59,2.44,2.39,3.66,7.28,3.66,14.65v21.9l-32.96,16.55ZM282.98,475.23v-9.08h-14.65v16.41l14.65-7.32Z" style="fill:#040708;"/><path d="M344.88,491.56l-.15.07v44.02h-18.31v-117.19h36.62c7.32,0,12.21,1.22,14.65,3.66,2.44,2.44,3.66,7.32,3.66,14.65v25.63c0,7.32-2.44,12.18-7.32,14.58l-13.99,6.96,21.31,51.71h-18.31l-18.16-44.09ZM363.04,436.77h-18.31v32.89l18.31-9.08v-23.8Z" style="fill:#040708;"/><path d="M410.65,504.52v12.89h14.65v-12.89l18.31-9.16v21.97c0,7.32-1.22,12.21-3.66,14.65s-7.32,3.66-14.65,3.66h-14.65c-7.32,0-12.21-1.22-14.65-3.66-2.44-2.44-3.66-7.3-3.66-14.58v-51.27c0-7.28,1.23-12.15,3.7-14.61,2.46-2.46,7.34-3.72,14.61-3.77l14.65.07c7.28,0,12.16,1.2,14.65,3.59,2.44,2.39,3.66,7.28,3.66,14.65v21.9l-32.96,16.55ZM425.3,475.23v-9.08h-14.65v16.41l14.65-7.32Z" style="fill:#040708;"/><path d="M487.56,535.65v-7.32c-2.44,4.83-6.1,7.3-10.99,7.4l-3.66-.07c-7.32,0-12.21-1.22-14.65-3.66-2.44-2.44-3.66-7.32-3.66-14.65v-51.27c0-7.32,1.22-12.21,3.66-14.65s7.32-3.66,14.65-3.66h3.66c4.88,0,8.54,2.44,10.99,7.32v-27.47l18.31-9.16v117.19h-18.31ZM487.56,517.34v-51.27h-14.65v51.27h14.65Z" style="fill:#040708;"/><path d="M531,436.77c0-7.28,1.23-12.15,3.7-14.61s7.34-3.72,14.61-3.77l18.31.07c7.28,0,12.15,1.2,14.61,3.59,2.46,2.39,3.7,7.32,3.7,14.79v7.25l-18.31,9.16v-16.48h-18.31v34.79l36.62-18.31v64.01c0,7.28-1.23,12.15-3.7,14.61-2.47,2.47-7.34,3.72-14.61,3.77l-18.31-.07c-7.28,0-12.15-1.2-14.61-3.59-2.47-2.39-3.7-7.32-3.7-14.79v-7.25l18.31-9.16v16.48h18.31v-36.47l-36.62,18.24v-62.26Z" style="fill:#040708;"/><path d="M648.19,535.65h-18.31v-7.32c-2.44,4.88-6.1,7.32-10.99,7.32h-3.66c-7.32,0-12.21-1.22-14.65-3.66-2.44-2.44-3.66-7.32-3.66-14.65v-69.58h18.31v69.58h14.65v-69.58h18.31v87.89Z" style="fill:#040708;"/><path d="M659.17,447.76h18.31v7.32c2.44-4.88,6.1-7.32,10.99-7.32h3.66c7.32,0,12.21,1.22,14.65,3.66,2.44,2.44,3.66,7.32,3.66,14.65v69.58h-18.31v-69.58h-14.65v69.58h-18.31v-87.89Z" style="fill:#040708;"/><g id="h"><circle cx="413.74" cy="215.65" r="98.29" style="fill:#920d0d;"/><path d="M413.74,314.45c-54.48,0-98.79-44.32-98.79-98.79s44.32-98.79,98.79-98.79,98.79,44.32,98.79,98.79-44.32,98.79-98.79,98.79ZM413.74,117.86c-53.92,0-97.79,43.87-97.79,97.79s43.87,97.79,97.79,97.79,97.79-43.87,97.79-97.79-43.87-97.79-97.79-97.79Z" style="fill:#920d0d;"/></g><path d="M471.06,367.12v1.95l-1.69.48c-5.04-10.45-9.25-21.42-14.63-31.71-3.85-7.37-13.99-25.55-23.41-25.37-8.12.16-25.05,12.97-31.5,18.3-16.99,14.05-31.94,30.96-46.33,47.57h-.49c-.63-1.1-.58-2.45-.51-3.68,2.96-52.55,22.37-107.73,50.75-151.7,2.61-4.05,5.68-9.17,8.58-12.88,1.08-1.39,1.69-2.17,3.08-.7,3.01,3.18,7.76,11.05,10.31,15.05,26.76,41.82,42.78,91.76,45.34,141.51l.51,1.18Z" style="fill:#050909;"/><path d="M414.29,298.7c-14.89,0-27-12.11-27-27s12.11-27,27-27,27,12.11,27,27-12.11,27-27,27ZM414.29,248.7c-12.68,0-23,10.32-23,23s10.32,23,23,23,23-10.32,23-23-10.32-23-23-23Z" style="fill:#ece4d1;"/><path d="M399.76,292.71c-2.32,0-3.79-.82-4.73-1.76-1.68-1.68-3.01-5.15.22-12.09,2.23-4.81,6.18-10.17,11.11-15.1,4.93-4.93,10.29-8.87,15.1-11.11,6.94-3.23,10.41-1.9,12.09-.22h0c1.68,1.68,3.01,5.15-.22,12.09-2.23,4.81-6.18,10.17-11.11,15.1-4.93,4.93-10.29,8.87-15.1,11.11-3.1,1.44-5.5,1.97-7.36,1.97ZM428.79,254.71c-1.29,0-3.16.42-5.65,1.58-4.39,2.04-9.35,5.7-13.95,10.31-4.6,4.6-8.26,9.56-10.31,13.95-2.01,4.33-1.8,6.79-1.02,7.58.79.79,3.25,1,7.58-1.02,4.39-2.04,9.35-5.7,13.95-10.31,4.6-4.6,8.26-9.56,10.31-13.95,2.01-4.33,1.8-6.79,1.02-7.58h0c-.33-.33-.97-.57-1.92-.57Z" style="fill:#ece4d1;"/></svg>